<?xml version="1.0" standalone="no"?>
<!DOCTYPE svg PUBLIC "-//W3C//DTD SVG 20010904//EN"
 "http://www.w3.org/TR/2001/REC-SVG-20010904/DTD/svg10.dtd">
<svg version="1.0" xmlns="http://www.w3.org/2000/svg"
 width="203.000000pt" height="203.000000pt" viewBox="0 0 203.000000 203.000000"
 preserveAspectRatio="xMidYMid meet">
<metadata>
Created by potrace 1.11, written by Peter Selinger 2001-2013
</metadata>
<g transform="translate(0.000000,203.000000) scale(0.100000,-0.100000)"
fill="#000000" stroke="none">
<path d="M489 1993 c0 -5 -2 -424 -2 -932 -2 -771 0 -924 12 -929 7 -3 27 -5
45 -6 23 -1 30 -5 28 -18 -3 -20 14 -33 24 -17 4 7 3 9 -4 5 -6 -4 -10 1 -9
12 1 16 9 19 54 18 35 -1 57 -6 64 -16 9 -12 10 -12 5 3 -4 12 -2 17 6 14 7
-2 12 -10 10 -16 -1 -7 2 -10 8 -6 6 3 7 11 4 17 -5 7 -1 9 9 5 29 -11 45 2
41 34 -3 22 0 28 9 23 9 -6 9 -4 1 7 -14 19 -16 61 -2 53 7 -5 8 -2 2 7 -5 8
-9 26 -10 40 -1 21 2 25 16 22 21 -6 35 12 19 23 -8 5 -9 3 -4 -5 5 -9 2 -12
-11 -9 -12 2 -19 13 -21 31 -1 16 2 25 8 21 6 -3 8 -13 4 -23 -5 -13 -4 -13 6
-4 10 10 9 16 -3 30 -17 20 -20 53 -5 53 5 0 6 -8 2 -17 -5 -15 -4 -16 7 -5
11 11 10 15 -2 25 -18 15 -25 81 -7 70 9 -5 9 -3 1 8 -14 19 -16 61 -2 53 7
-5 8 -2 2 7 -26 41 3 209 37 209 8 0 8 -4 -1 -15 -7 -8 -9 -15 -6 -15 4 0 0
-8 -9 -17 -16 -16 -16 -17 0 -30 19 -13 39 -8 30 7 -3 5 -13 6 -23 3 -15 -6
-15 -4 2 15 11 12 15 22 10 22 -5 1 2 10 16 21 23 20 24 22 6 34 -16 12 -17
16 -3 35 l15 22 17 -32 c9 -17 14 -34 11 -38 -3 -3 -6 -1 -6 4 0 6 -6 18 -13
29 -11 14 -16 15 -22 5 -5 -8 -4 -11 2 -7 6 4 15 -5 21 -18 7 -14 15 -25 20
-25 5 0 65 -146 133 -325 l124 -325 38 0 c29 0 40 -5 48 -23 l10 -22 -5 23
c-4 20 -1 22 32 19 28 -2 36 -7 34 -19 -3 -20 14 -32 24 -17 4 7 3 9 -4 5 -6
-4 -10 1 -9 12 1 15 11 18 59 19 35 1 56 -2 52 -8 -3 -5 -9 -7 -14 -4 -5 3
-18 -3 -29 -14 -19 -19 -19 -20 -1 -18 10 1 18 6 17 11 -1 6 3 10 9 11 5 0 25
13 44 28 18 16 27 28 19 27 -8 -1 -19 -2 -25 -1 -17 2 -25 44 -11 53 8 5 7 8
-4 8 -18 0 -29 20 -29 51 0 10 -4 19 -9 19 -5 0 -11 9 -14 19 -4 15 0 19 15
16 12 -3 17 -1 14 3 -7 7 -11 8 -37 11 -8 1 -7 6 1 17 8 8 9 14 4 13 -22 -4
-26 2 -9 14 14 11 15 16 5 22 -9 5 -11 4 -6 -3 4 -7 1 -12 -10 -12 -11 0 -15
6 -11 20 3 11 1 18 -3 15 -8 -5 -30 57 -29 79 0 5 -5 12 -12 16 -6 4 -12 21
-13 38 0 17 -4 28 -7 26 -3 -2 -13 13 -23 33 -14 29 -15 38 -4 44 10 7 10 9 1
9 -7 0 -20 15 -29 33 -17 31 -17 32 2 17 14 -10 13 -7 -3 11 -13 14 -23 35
-23 47 0 12 -5 22 -11 22 -6 0 -8 7 -5 16 3 8 2 12 -4 9 -8 -5 -13 15 -9 42 0
3 -7 10 -16 15 -13 8 -14 12 -3 26 7 9 8 13 2 9 -7 -4 -16 6 -24 26 -6 17 -15
39 -20 48 -6 11 -3 22 8 35 16 17 16 17 0 5 -15 -11 -19 -11 -24 5 -4 11 -9
23 -12 28 -3 5 0 6 6 2 6 -3 14 -1 18 5 4 7 3 9 -3 6 -15 -9 -40 22 -47 59 -8
36 1 84 16 84 6 0 8 -7 5 -14 -4 -10 -1 -13 9 -9 11 4 12 9 5 16 -18 18 -13
48 9 54 11 3 20 10 20 15 0 5 -4 6 -10 3 -5 -3 -10 -1 -10 4 0 6 5 11 11 11 5
0 8 4 4 9 -3 5 2 16 10 25 9 8 16 19 15 23 0 18 12 43 21 43 5 0 4 -10 -3 -22
-7 -13 -11 -27 -10 -32 2 -4 -5 -15 -15 -23 -16 -13 -16 -13 5 -3 13 6 21 17
19 23 -5 14 30 67 43 67 5 0 7 -8 4 -17 -5 -15 -4 -15 4 -3 6 8 8 18 6 22 -3
5 5 12 18 17 13 6 18 10 12 10 -16 1 -64 -23 -64 -32 0 -5 -4 -6 -9 -2 -10 6
35 104 54 117 5 4 7 8 3 8 -4 0 13 40 37 90 25 49 45 93 45 98 0 5 7 15 15 22
8 7 12 16 9 21 -3 5 0 9 5 9 15 0 14 -6 -6 -38 -9 -15 -13 -24 -8 -20 4 4 15
2 24 -5 14 -11 14 -10 2 6 -11 14 -11 20 -1 32 10 12 10 18 1 29 -10 12 -8 19
9 36 12 12 24 19 27 16 3 -3 -5 -15 -18 -26 l-24 -21 28 17 c15 9 27 21 27 26
0 5 5 6 11 2 8 -4 8 0 0 15 -7 11 -16 21 -20 21 -5 0 -4 11 2 24 7 13 15 22
20 19 4 -3 3 -10 -2 -17 -6 -7 -8 -16 -4 -19 10 -10 33 -8 33 3 0 5 -8 7 -17
3 -14 -5 -16 -3 -6 7 8 9 9 19 2 32 -8 14 -6 18 8 18 12 0 14 3 6 8 -8 5 -9
13 -3 22 24 37 14 40 -133 40 l-144 0 -68 -147 c-234 -504 -258 -553 -267
-553 -4 0 -7 -3 -6 -7 4 -14 -13 -53 -22 -53 -5 0 -7 -6 -4 -14 3 -8 2 -16 -3
-19 -5 -3 -9 22 -10 55 -1 39 2 56 8 47 5 -8 6 -23 3 -34 -5 -19 -4 -19 6 -2
9 14 8 23 -3 40 -20 32 -21 313 -1 296 16 -13 27 -7 30 16 1 8 -2 13 -7 9 -5
-3 -7 -10 -4 -15 9 -14 -11 -11 -22 4 -14 18 -14 59 0 50 22 -14 33 -11 34 11
2 19 1 19 -8 3 -14 -24 -36 -6 -36 28 0 21 2 23 13 14 16 -13 27 -7 30 16 1 8
-2 13 -7 9 -5 -3 -7 -10 -4 -15 9 -14 -11 -11 -22 4 -14 18 -14 59 0 50 9 -5
9 -3 1 8 -15 20 -16 61 -1 52 7 -4 5 1 -3 12 -8 10 -14 20 -12 22 1 1 2 28 2
58 l0 55 -145 0 c-80 0 -145 -3 -146 -7z m921 -151 c0 -5 -7 -9 -15 -9 -8 0
-15 4 -15 9 0 4 7 8 15 8 8 0 15 -4 15 -8z m-550 -1046 c0 -11 -19 -15 -25 -6
-3 5 1 10 9 10 9 0 16 -2 16 -4z"/>
<path d="M1474 1939 c-3 -6 -2 -15 3 -20 5 -5 9 -1 9 11 0 23 -2 24 -12 9z"/>
<path d="M790 1930 c0 -5 5 -10 11 -10 5 0 7 5 4 10 -3 6 -8 10 -11 10 -2 0
-4 -4 -4 -10z"/>
<path d="M794 1890 c0 -13 4 -16 10 -10 7 7 7 13 0 20 -6 6 -10 3 -10 -10z"/>
<path d="M1455 1890 c3 -5 8 -10 11 -10 2 0 4 5 4 10 0 6 -5 10 -11 10 -5 0
-7 -4 -4 -10z"/>
<path d="M815 1861 c-3 -5 -2 -12 3 -15 5 -3 9 1 9 9 0 17 -3 19 -12 6z"/>
<path d="M795 1830 c-3 -6 1 -13 9 -16 9 -3 13 -11 9 -17 -4 -6 -1 -7 7 -2 10
6 10 11 -3 20 -9 7 -14 15 -10 18 3 4 4 7 0 7 -3 0 -9 -5 -12 -10z"/>
<path d="M1396 1785 c-11 -8 -15 -15 -9 -15 7 0 15 5 18 10 4 6 11 7 17 4 7
-4 8 -2 4 4 -9 14 -7 15 -30 -3z"/>
<path d="M795 1770 c-3 -5 -1 -10 4 -10 6 0 11 5 11 10 0 6 -2 10 -4 10 -3 0
-8 -4 -11 -10z"/>
<path d="M1386 1748 c3 -4 9 -8 15 -8 5 0 9 4 9 8 0 5 -7 9 -15 9 -8 0 -12 -4
-9 -9z"/>
<path d="M1319 1683 c-13 -15 -12 -15 9 -4 23 12 28 21 13 21 -5 0 -15 -7 -22
-17z"/>
<path d="M1338 1668 c-9 -5 -6 -7 9 -5 12 2 25 6 28 8 8 9 -23 6 -37 -3z"/>
<path d="M1314 1646 c5 -14 3 -17 -11 -12 -15 6 -16 5 -5 -5 9 -10 15 -10 24
-1 9 9 9 15 -1 25 -12 10 -13 9 -7 -7z"/>
<path d="M1288 1595 c5 -31 14 -37 32 -23 12 8 12 9 -2 4 -13 -4 -18 0 -18 14
0 10 -4 21 -9 24 -4 3 -6 -6 -3 -19z"/>
<path d="M819 1578 c-5 -19 -8 -50 -4 -46 7 7 15 48 9 48 -2 0 -4 -1 -5 -2z"/>
<path d="M1261 1554 c-6 -15 -9 -29 -6 -32 3 -4 9 4 12 17 6 23 7 23 20 6 7
-11 13 -15 13 -9 0 5 -7 17 -14 26 -12 16 -14 16 -25 -8z"/>
<path d="M791 1554 c0 -11 3 -14 6 -6 3 7 2 16 -1 19 -3 4 -6 -2 -5 -13z"/>
<path d="M790 1510 c0 -6 4 -9 9 -6 5 4 12 1 14 -4 3 -6 4 -5 3 2 -3 15 -26
23 -26 8z"/>
<path d="M1273 1503 c0 -9 4 -10 14 -2 7 6 13 12 13 14 0 1 -6 2 -13 2 -8 0
-14 -6 -14 -14z"/>
<path d="M1225 1500 c-4 -7 1 -19 11 -28 17 -16 17 -16 5 1 -8 9 -11 21 -7 24
4 4 12 1 17 -7 9 -13 10 -13 7 -1 -5 19 -24 25 -33 11z"/>
<path d="M790 1471 c0 -6 4 -12 8 -15 5 -3 9 1 9 9 0 8 -4 15 -9 15 -4 0 -8
-4 -8 -9z"/>
<path d="M1202 1445 c-7 -8 -9 -15 -4 -15 5 0 15 7 22 15 16 19 -1 19 -18 0z"/>
<path d="M790 1431 c0 -6 4 -12 8 -15 5 -3 9 1 9 9 0 8 -4 15 -9 15 -4 0 -8
-4 -8 -9z"/>
<path d="M790 1390 c0 -6 4 -9 9 -6 5 4 12 1 14 -4 3 -6 4 -5 3 2 -3 15 -26
23 -26 8z"/>
<path d="M1194 1372 c3 -5 0 -13 -6 -15 -9 -4 -10 -6 -1 -6 17 -1 25 16 12 25
-7 4 -9 3 -5 -4z"/>
<path d="M790 1348 c0 -4 4 -8 9 -8 6 0 12 4 15 8 3 5 -1 9 -9 9 -8 0 -15 -4
-15 -9z"/>
<path d="M1140 1293 c0 -5 11 -8 24 -8 13 0 22 3 19 8 -2 4 -13 7 -24 7 -10 0
-19 -3 -19 -7z"/>
<path d="M1135 1259 c-4 -6 -13 -8 -21 -5 -8 3 -14 1 -14 -4 0 -6 7 -10 15
-10 23 0 29 4 31 18 3 15 -3 16 -11 1z"/>
<path d="M1130 1209 c0 -5 5 -7 10 -4 6 3 10 8 10 11 0 2 -4 4 -10 4 -5 0 -10
-5 -10 -11z"/>
<path d="M1108 1183 c7 -3 16 -2 19 1 4 3 -2 6 -13 5 -11 0 -14 -3 -6 -6z"/>
<path d="M1070 1169 c0 -5 5 -7 11 -3 8 4 9 -1 5 -17 -6 -20 -5 -21 4 -6 11
18 6 37 -11 37 -5 0 -9 -5 -9 -11z"/>
<path d="M1159 943 c-13 -16 -12 -17 4 -4 9 7 17 15 17 17 0 8 -8 3 -21 -13z"/>
<path d="M853 741 c0 -11 5 -18 9 -15 4 3 5 11 1 19 -7 21 -12 19 -10 -4z"/>
<path d="M795 665 c0 -18 3 -31 6 -29 4 2 7 15 7 29 0 14 -3 27 -7 29 -3 2 -6
-11 -6 -29z"/>
<path d="M815 630 c-3 -5 -3 -10 1 -10 4 0 0 -6 -11 -13 -14 -11 -15 -16 -5
-22 8 -5 11 -4 6 3 -3 5 -1 12 6 14 6 2 12 12 14 21 3 19 -2 22 -11 7z"/>
<path d="M1276 617 c3 -10 9 -15 12 -12 3 3 0 11 -7 18 -10 9 -11 8 -5 -6z"/>
<path d="M807 555 c-11 -15 -13 -26 -7 -30 6 -4 9 -1 8 7 -2 7 2 12 7 11 6 -1
12 7 12 18 2 24 2 24 -20 -6z"/>
<path d="M1310 553 c0 -6 8 -17 18 -24 16 -13 16 -13 2 6 -8 11 -16 22 -17 24
-2 2 -3 0 -3 -6z"/>
<path d="M815 510 c-3 -5 -3 -10 1 -10 4 0 0 -6 -11 -13 -14 -11 -15 -16 -5
-22 8 -5 11 -4 6 3 -3 5 -1 12 6 14 6 2 12 12 14 21 3 19 -2 22 -11 7z"/>
<path d="M815 451 c-3 -5 -2 -12 3 -15 5 -3 9 1 9 9 0 17 -3 19 -12 6z"/>
<path d="M1345 450 c-3 -6 1 -7 9 -4 18 7 21 14 7 14 -6 0 -13 -4 -16 -10z"/>
<path d="M810 390 c0 -5 5 -10 11 -10 5 0 7 5 4 10 -3 6 -8 10 -11 10 -2 0 -4
-4 -4 -10z"/>
<path d="M796 268 c3 -5 10 -6 15 -3 13 9 11 12 -6 12 -8 0 -12 -4 -9 -9z"/>
<path d="M807 235 c-11 -15 -13 -26 -7 -30 6 -4 9 -1 8 7 -2 7 2 12 7 11 6 -1
12 7 12 18 2 24 2 24 -20 -6z"/>
<path d="M815 190 c-3 -5 -3 -10 1 -10 4 0 0 -6 -11 -13 -14 -11 -15 -16 -5
-22 8 -5 11 -4 6 3 -3 5 -1 12 6 14 6 2 12 12 14 21 3 19 -2 22 -11 7z"/>
<path d="M1451 184 c0 -11 3 -14 6 -6 3 7 2 16 -1 19 -3 4 -6 -2 -5 -13z"/>
<path d="M815 131 c-3 -5 -2 -12 3 -15 5 -3 9 1 9 9 0 17 -3 19 -12 6z"/>
<path d="M610 110 c0 -5 5 -10 11 -10 5 0 7 5 4 10 -3 6 -8 10 -11 10 -2 0 -4
-4 -4 -10z"/>
<path d="M650 106 c7 -7 13 -7 20 0 6 6 3 10 -10 10 -13 0 -16 -4 -10 -10z"/>
<path d="M775 110 c-3 -5 -2 -10 4 -10 5 0 13 5 16 10 3 6 2 10 -4 10 -5 0
-13 -4 -16 -10z"/>
<path d="M1350 110 c0 -5 5 -10 11 -10 5 0 7 5 4 10 -3 6 -8 10 -11 10 -2 0
-4 -4 -4 -10z"/>
<path d="M1460 109 c0 -5 5 -7 10 -4 6 3 10 8 10 11 0 2 -4 4 -10 4 -5 0 -10
-5 -10 -11z"/>
<path d="M675 90 c-3 -5 -1 -10 4 -10 6 0 11 5 11 10 0 6 -2 10 -4 10 -3 0 -8
-4 -11 -10z"/>
<path d="M740 90 c-12 -7 -10 -9 7 -7 12 0 19 5 17 9 -6 10 -6 10 -24 -2z"/>
<path d="M1435 90 c-3 -5 -1 -10 4 -10 6 0 11 5 11 10 0 6 -2 10 -4 10 -3 0
-8 -4 -11 -10z"/>
</g>
</svg>
